<?xml version="1.0" encoding="utf-8"?>
<!-- Generator: Adobe Illustrator 23.0.0, SVG Export Plug-In . SVG Version: 6.00 Build 0)  -->
<svg version="1.1" id="Layer_1" xmlns="http://www.w3.org/2000/svg" xmlns:xlink="http://www.w3.org/1999/xlink" x="0px" y="0px"
	 viewBox="0 0 500 500" style="enable-background:new 0 0 500 500;" xml:space="preserve">
<style type="text/css">
	.st0{fill:#83E1E5;}
	.st1{fill:#AAB1BA;}
	.st2{fill:#FDDF7F;}
	.st3{fill:#ECF4F7;}
	.st4{fill:#1C1D21;}
</style>
<g>
	<path class="st1" d="M141.174,271.477l-20.323-19.53c-7.372-7.084-18.458-8.638-27.493-3.852L5,294.9h24.09
		c4.063,0,7.889,1.913,10.327,5.163l10.68,14.24l11.252-15.003c1.65-2.2,4.951-2.2,6.601,0l11.253,15.003L93.755,294.9h18.665
		C119.285,284.367,129.321,276.109,141.174,271.477z"/>
</g>
<g>
	<path class="st1" d="M406.641,248.095c-9.035-4.786-20.121-3.232-27.493,3.852l-20.323,19.53
		c11.854,4.633,21.889,12.891,28.754,23.424h18.665l14.553,19.403l11.253-15.003c1.65-2.2,4.951-2.2,6.601,0l11.252,15.003
		l10.68-14.24c2.438-3.25,6.264-5.163,10.327-5.163H495L406.641,248.095z"/>
</g>
<g>
	<path class="st1" d="M363.36,50.894c-12.542,20.739-30.185,37.754-51.082,49.59c10.375,8.029,19.162,18.015,25.813,29.407
		c19.318-24.606,30.058-55.158,30.058-86.916v-0.001L363.36,50.894z"/>
</g>
<g>
	<path class="st1" d="M187.721,100.483c-20.897-11.836-38.539-28.851-51.082-49.59l-4.79-7.92v0.001
		c0,31.758,10.74,62.31,30.058,86.916C168.559,118.497,177.347,108.512,187.721,100.483z"/>
</g>
<g>
	<path class="st0" d="M336.827,267.332h-31.602c-15.919,10.299-34.868,16.3-55.225,16.3s-39.306-6.001-55.225-16.3h-31.602
		c-33.464,0-60.591,27.186-60.591,60.721v97.677c0,11.106,9.002,20.109,20.106,20.109h4.436V495h245.752v-49.161h4.436
		c11.104,0,20.106-9.003,20.106-20.109v-97.677C397.418,294.518,370.291,267.332,336.827,267.332z"/>
</g>
<g>
	<g>
		<path class="st2" d="M340.13,350.723v44.435h-83.823h-12.841h-83.823v-44.435h-57.06v75.007c0,11.105,9.002,20.109,20.106,20.109
			h120.777h12.841h121.005c11.104,0,20.106-9.004,20.106-20.109v-75.007H340.13z"/>
	</g>
</g>
<g>
	<ellipse class="st2" cx="250" cy="181.423" rx="101.992" ry="102.209"/>
</g>
<g>
	<path class="st3" d="M300.837,212.65c-4.521-3.928-11.369-3.448-15.297,1.072c-8.984,10.337-21.914,16.309-35.54,16.453
		c-13.626-0.145-26.556-6.116-35.54-16.453c-3.928-4.52-10.776-5-15.297-1.072c-4.52,3.929-5,10.777-1.072,15.297
		c13.105,15.079,32.001,23.769,51.908,23.914c19.908-0.145,38.804-8.835,51.908-23.914
		C305.836,223.427,305.357,216.579,300.837,212.65z"/>
</g>
<g>
	<circle class="st3" cx="208.372" cy="165.36" r="17.988"/>
</g>
<g>
	<circle class="st3" cx="291.628" cy="165.36" r="17.988"/>
</g>
<path class="st4" d="M497.341,290.482l-88.359-46.806c-10.967-5.812-24.348-3.936-33.298,4.664l-7.381,7.093
	c-1.991,1.914-2.054,5.079-0.141,7.07c1.914,1.991,5.078,2.055,7.07,0.141l7.381-7.093c5.827-5.601,14.541-6.822,21.687-3.039
	l70.58,37.388h-3.97c-5.606,0-10.962,2.678-14.326,7.163l-6.68,8.907l-7.253-9.67c-1.74-2.32-4.401-3.65-7.302-3.65
	c-2.899,0.001-5.561,1.331-7.299,3.65l-7.253,9.67l-10.553-14.07c-0.944-1.259-2.426-2-4-2h-16.062
	c-11.909-16.672-31.38-27.567-53.356-27.567h-16.708c22.576-19.671,36.873-48.648,36.873-80.91c0-18.483-4.693-35.89-12.947-51.086
	c18.79-25.108,29.105-55.997,29.105-87.363c0-2.244-1.495-4.213-3.657-4.816c-2.161-0.603-4.46,0.308-5.621,2.229l-4.79,7.92
	c0,0,0,0,0,0.001c-11.439,18.914-27.481,34.826-46.512,46.206C294.962,81.749,273.344,74.214,250,74.214s-44.962,7.535-62.57,20.299
	c-19.03-11.38-35.073-27.292-46.512-46.207l-4.79-7.919c-1.162-1.921-3.458-2.831-5.622-2.229c-2.161,0.604-3.656,2.572-3.656,4.816
	c0,31.365,10.314,62.254,29.105,87.362c-8.254,15.196-12.947,32.603-12.947,51.086c0,32.262,14.296,61.239,36.873,80.91h-16.708
	c-21.976,0-41.447,10.896-53.356,27.567H93.755c-1.574,0-3.056,0.741-4,2l-10.553,14.07l-7.252-9.669
	c-1.739-2.32-4.4-3.65-7.3-3.651h-0.001c-2.899,0-5.561,1.331-7.301,3.65l-7.253,9.67l-6.68-8.907
	c-3.364-4.485-8.72-7.163-14.326-7.163h-3.97l70.58-37.388c7.144-3.783,15.859-2.562,21.687,3.039l6.933,6.662
	c1.991,1.913,5.157,1.85,7.07-0.141c1.913-1.991,1.85-5.156-0.141-7.07l-6.933-6.662c-8.95-8.6-22.329-10.474-33.298-4.664
	L2.659,290.482c-2.029,1.075-3.065,3.395-2.512,5.624C0.701,298.335,2.703,299.9,5,299.9h24.09c2.476,0,4.841,1.183,6.326,3.163
	l10.68,14.24c0.944,1.259,2.426,2,4,2c1.573,0,3.056-0.741,4-2l10.553-14.07l10.554,14.07c0.944,1.259,2.427,2,4,2
	c1.574,0,3.056-0.741,4-2L96.255,299.9h7.663c-4.057,8.539-6.336,18.083-6.336,28.152v97.677c0,13.655,10.958,24.791,24.542,25.095
	v25.834c0,2.762,2.238,5,5,5s5-2.238,5-5v-25.819h84.246c11.666,0,22.844-4.323,31.474-12.173l31.816-28.938
	c6.785-6.172,15.574-9.57,24.746-9.57h35.724c2.762,0,5-2.238,5-5v-39.434h47.288v70.009c0,8.33-6.776,15.106-15.106,15.106H259.508
	c-2.762,0-5,2.238-5,5s2.238,5,5,5h108.368v25.819c0,2.762,2.238,5,5,5s5-2.238,5-5v-25.834
	c13.583-0.302,24.542-11.438,24.542-25.092v-97.68c0-10.069-2.279-19.613-6.336-28.152h7.663l13.053,17.403c0.944,1.259,2.426,2,4,2
	c1.573,0,3.056-0.741,4-2l10.553-14.07l10.554,14.07c0.944,1.259,2.427,2,4,2c1.574,0,3.056-0.741,4-2l10.68-14.24
	c1.485-1.98,3.851-3.163,6.326-3.163H495c2.297,0,4.299-1.565,4.853-3.794C500.406,293.877,499.37,291.558,497.341,290.482z
	 M361.724,62.483c-3.077,20.988-11.063,41.153-23.296,58.573c-5-7.351-10.864-14.017-17.522-19.917
	C336.894,91.011,350.789,77.845,361.724,62.483z M138.276,62.483c10.936,15.361,24.83,28.527,40.818,38.656
	c-6.659,5.901-12.522,12.565-17.522,19.917C149.34,103.637,141.354,83.472,138.276,62.483z M153.008,181.423
	c0-53.602,43.511-97.209,96.992-97.209s96.992,43.607,96.992,97.209c0,34.928-18.478,65.606-46.148,82.747
	c-0.228,0.142-0.454,0.286-0.683,0.425c-0.495,0.301-0.994,0.595-1.495,0.887c-0.38,0.222-0.761,0.438-1.143,0.655
	c-0.517,0.292-1.035,0.583-1.557,0.866c-0.686,0.371-1.375,0.734-2.068,1.088c-0.386,0.197-0.775,0.389-1.164,0.581
	c-0.576,0.283-1.154,0.563-1.735,0.834c-0.318,0.149-0.635,0.302-0.956,0.448c-0.87,0.396-1.746,0.779-2.626,1.149
	c-0.259,0.109-0.521,0.214-0.781,0.32c-0.754,0.31-1.511,0.609-2.273,0.899c-0.218,0.083-0.435,0.168-0.653,0.249
	c-0.973,0.362-1.952,0.711-2.936,1.041c-0.116,0.039-0.234,0.076-0.35,0.114c-0.915,0.304-1.835,0.593-2.759,0.868
	c-0.161,0.049-0.321,0.098-0.482,0.145c-2.069,0.605-4.159,1.142-6.266,1.607c-0.152,0.034-0.304,0.067-0.456,0.101
	c-2.106,0.455-4.23,0.84-6.367,1.153c-0.181,0.027-0.364,0.052-0.545,0.077c-0.918,0.129-1.839,0.245-2.761,0.349
	c-0.17,0.019-0.338,0.04-0.508,0.059c-1.04,0.11-2.083,0.204-3.129,0.281c-0.213,0.016-0.427,0.026-0.64,0.041
	c-0.83,0.056-1.662,0.1-2.495,0.134c-0.307,0.013-0.615,0.025-0.923,0.035c-0.967,0.031-1.936,0.051-2.906,0.053
	c-0.063,0-0.125,0.002-0.188,0.002s-0.125-0.002-0.188-0.002c-0.97-0.002-1.939-0.021-2.906-0.053
	c-0.308-0.01-0.615-0.022-0.923-0.035c-0.833-0.034-1.665-0.078-2.495-0.134c-0.213-0.015-0.427-0.025-0.64-0.041
	c-1.046-0.077-2.089-0.171-3.129-0.281c-0.17-0.019-0.338-0.04-0.508-0.059c-0.923-0.104-1.844-0.22-2.761-0.349
	c-0.182-0.025-0.364-0.05-0.545-0.077c-2.137-0.313-4.26-0.698-6.367-1.153c-0.152-0.033-0.304-0.066-0.456-0.101
	c-2.107-0.466-4.197-1.002-6.266-1.607c-0.161-0.047-0.321-0.096-0.482-0.145c-0.924-0.275-1.844-0.564-2.759-0.868
	c-0.117-0.038-0.234-0.075-0.35-0.114c-0.984-0.33-1.962-0.679-2.936-1.041c-0.219-0.081-0.435-0.166-0.653-0.249
	c-0.761-0.29-1.519-0.59-2.273-0.899c-0.26-0.106-0.522-0.211-0.781-0.32c-0.88-0.37-1.756-0.753-2.626-1.149
	c-0.32-0.146-0.637-0.299-0.956-0.448c-0.581-0.271-1.159-0.551-1.735-0.834c-0.389-0.192-0.778-0.384-1.164-0.581
	c-0.693-0.354-1.383-0.717-2.068-1.088c-0.523-0.283-1.041-0.574-1.557-0.866c-0.382-0.217-0.764-0.434-1.143-0.655
	c-0.5-0.292-1-0.586-1.495-0.887c-0.229-0.139-0.455-0.283-0.683-0.425C171.486,247.029,153.008,216.351,153.008,181.423z
	 M392.418,345.724H345.13v-31.42c0-2.762-2.238-5-5-5s-5,2.238-5,5v75.854h-30.724c-11.666,0-22.844,4.323-31.475,12.172
	l-31.816,28.938c-6.785,6.172-15.573,9.571-24.745,9.571h-93.679c-8.331,0-15.109-6.778-15.109-15.109v-70.006h47.06v39.434
	c0,2.762,2.238,5,5,5h101.815c2.762,0,5-2.238,5-5s-2.238-5-5-5h-96.815v-75.854c0-2.762-2.238-5-5-5s-5,2.238-5,5v31.42h-47.06
	v-17.671c0-30.724,24.938-55.72,55.591-55.72h30.145c0.342,0.215,0.692,0.414,1.036,0.625c0.227,0.139,0.455,0.274,0.683,0.412
	c1.021,0.613,2.05,1.209,3.087,1.787c0.357,0.199,0.712,0.401,1.072,0.597c0.51,0.276,1.022,0.545,1.536,0.813
	c0.484,0.253,0.97,0.501,1.458,0.746c0.447,0.225,0.893,0.452,1.343,0.67c0.881,0.427,1.769,0.842,2.663,1.246
	c0.345,0.155,0.692,0.304,1.038,0.455c0.706,0.31,1.415,0.612,2.128,0.907c0.319,0.131,0.638,0.264,0.958,0.393
	c1.01,0.405,2.025,0.799,3.049,1.174c0.087,0.032,0.175,0.062,0.262,0.093c0.985,0.358,1.977,0.698,2.974,1.027
	c0.223,0.074,0.446,0.146,0.669,0.219c2.192,0.707,4.414,1.347,6.665,1.913c0.135,0.034,0.27,0.065,0.404,0.099
	c1.036,0.257,2.077,0.498,3.125,0.724c0.125,0.027,0.25,0.056,0.376,0.083c2.27,0.48,4.566,0.887,6.886,1.221
	c0.219,0.031,0.437,0.063,0.656,0.092c1.038,0.144,2.08,0.273,3.127,0.386c0.107,0.012,0.213,0.025,0.321,0.037
	c1.126,0.117,2.257,0.215,3.393,0.297c0.275,0.021,0.55,0.035,0.825,0.053c0.857,0.056,1.718,0.101,2.581,0.136
	c0.341,0.014,0.682,0.028,1.023,0.039c1.043,0.032,2.09,0.053,3.14,0.055c0.068,0,0.136,0.004,0.205,0.004s0.136-0.004,0.205-0.004
	c1.051-0.002,2.097-0.022,3.14-0.055c0.341-0.011,0.682-0.025,1.023-0.039c0.863-0.035,1.723-0.08,2.581-0.136
	c0.275-0.018,0.551-0.032,0.825-0.053c1.136-0.082,2.267-0.18,3.393-0.297c0.107-0.012,0.214-0.025,0.321-0.037
	c1.047-0.112,2.089-0.242,3.127-0.386c0.219-0.029,0.438-0.061,0.657-0.092c2.32-0.334,4.616-0.74,6.885-1.221
	c0.125-0.027,0.25-0.056,0.376-0.083c1.047-0.226,2.089-0.467,3.125-0.724c0.135-0.033,0.27-0.064,0.404-0.099
	c2.251-0.566,4.473-1.206,6.665-1.913c0.223-0.072,0.446-0.145,0.669-0.219c0.998-0.329,1.99-0.669,2.974-1.027
	c0.087-0.031,0.175-0.061,0.262-0.093c1.024-0.375,2.04-0.769,3.049-1.174c0.32-0.129,0.639-0.262,0.958-0.394
	c0.713-0.294,1.422-0.596,2.127-0.905c0.347-0.152,0.695-0.301,1.04-0.457c0.894-0.403,1.781-0.818,2.662-1.245
	c0.45-0.218,0.896-0.445,1.343-0.67c0.488-0.245,0.974-0.493,1.458-0.746c0.513-0.268,1.026-0.536,1.536-0.813
	c0.359-0.195,0.715-0.397,1.072-0.597c1.038-0.578,2.067-1.174,3.087-1.787c0.228-0.138,0.456-0.273,0.683-0.412
	c0.344-0.211,0.694-0.41,1.036-0.625h30.145c30.653,0,55.591,24.996,55.591,55.72V345.724z M446.768,495c0,2.762-2.238,5-5,5h-3.813
	c-2.762,0-5-2.238-5-5s2.238-5,5-5h3.813C444.529,490,446.768,492.238,446.768,495z M425.795,495c0,2.762-2.238,5-5,5H81.07
	c-2.762,0-5-2.238-5-5s2.238-5,5-5h339.725C423.557,490,425.795,492.238,425.795,495z M68.91,495c0,2.762-2.238,5-5,5h-3.813
	c-2.762,0-5-2.238-5-5s2.238-5,5-5h3.813C66.672,490,68.91,492.238,68.91,495z M218.234,210.441
	c-5.729-6.592-15.756-7.296-22.352-1.564c-6.593,5.73-7.295,15.757-1.565,22.35c14.023,16.137,34.306,25.479,55.719,25.635
	c21.341-0.155,41.623-9.498,55.646-25.634c5.729-6.594,5.027-16.62-1.565-22.351c0-0.001-0.001-0.001-0.001-0.001
	c-6.597-5.729-16.621-5.025-22.351,1.565c-8.013,9.221-19.589,14.589-31.766,14.733C237.823,225.03,226.247,219.662,218.234,210.441
	z M250.053,235.175c15.053-0.16,29.363-6.784,39.262-18.173c2.112-2.433,5.811-2.689,8.243-0.577
	c2.431,2.114,2.689,5.812,0.576,8.243c-12.141,13.97-29.698,22.06-48.098,22.193c-18.472-0.134-36.029-8.224-48.17-22.194
	c-2.113-2.432-1.854-6.129,0.576-8.242c1.104-0.96,2.471-1.43,3.83-1.43c1.635,0,3.261,0.68,4.413,2.007
	c9.898,11.389,24.209,18.013,39.262,18.173C249.982,235.175,250.018,235.175,250.053,235.175z M284.563,16.534c0-2.762,2.238-5,5-5
	h6.534V5c0-2.762,2.238-5,5-5s5,2.238,5,5v6.534h6.534c2.762,0,5,2.238,5,5s-2.238,5-5,5h-6.534v6.535c0,2.762-2.238,5-5,5
	s-5-2.238-5-5v-6.535h-6.534C286.802,21.534,284.563,19.296,284.563,16.534z M234.397,16.534c0-2.762,2.238-5,5-5h6.535V5
	c0-2.762,2.238-5,5-5s5,2.238,5,5v6.534h6.534c2.762,0,5,2.238,5,5s-2.238,5-5,5h-6.534v6.535c0,2.762-2.238,5-5,5s-5-2.238-5-5
	v-6.535h-6.535C236.636,21.534,234.397,19.296,234.397,16.534z M184.232,16.534c0-2.762,2.238-5,5-5h6.534V5c0-2.762,2.238-5,5-5
	s5,2.238,5,5v6.534h6.535c2.762,0,5,2.238,5,5s-2.238,5-5,5h-6.535v6.535c0,2.762-2.238,5-5,5s-5-2.238-5-5v-6.535h-6.534
	C186.471,21.534,184.232,19.296,184.232,16.534z M208.372,188.348c12.675,0,22.987-10.313,22.987-22.987
	c0-12.676-10.313-22.988-22.987-22.988s-22.987,10.313-22.987,22.988C185.385,178.035,195.697,188.348,208.372,188.348z
	 M208.372,152.372c7.161,0,12.987,5.826,12.987,12.988c0,7.161-5.826,12.987-12.987,12.987s-12.987-5.826-12.987-12.987
	C195.385,158.198,201.211,152.372,208.372,152.372z M291.628,188.348c12.675,0,22.987-10.313,22.987-22.987
	c0-12.676-10.313-22.988-22.987-22.988s-22.987,10.313-22.987,22.988C268.641,178.035,278.953,188.348,291.628,188.348z
	 M291.628,152.372c7.161,0,12.987,5.826,12.987,12.988c0,7.161-5.826,12.987-12.987,12.987s-12.987-5.826-12.987-12.987
	C278.641,158.198,284.467,152.372,291.628,152.372z M269.317,132.658c-0.929-2.601,0.427-5.462,3.026-6.392l27.345-9.77
	c2.604-0.926,5.463,0.427,6.392,3.026c0.929,2.601-0.427,5.462-3.026,6.392l-27.345,9.77c-0.557,0.198-1.124,0.292-1.683,0.292
	C271.973,135.977,270.049,134.702,269.317,132.658z M193.92,119.523c0.929-2.601,3.788-3.953,6.392-3.026l27.345,9.77
	c2.6,0.93,3.955,3.791,3.026,6.392c-0.73,2.044-2.656,3.318-4.709,3.318c-0.559,0-1.126-0.094-1.683-0.292l-27.345-9.77
	C194.347,124.985,192.991,122.124,193.92,119.523z"/>
</svg>
